<?xml version="1.0" ?><!DOCTYPE svg  PUBLIC '-//W3C//DTD SVG 1.1//EN'  'http://www.w3.org/Graphics/SVG/1.1/DTD/svg11.dtd'><svg enable-background="new 0 0 24 24" height="24px" id="Layer_1" version="1.1" viewBox="0 0 24 24" width="24px" xml:space="preserve" xmlns="http://www.w3.org/2000/svg" xmlns:xlink="http://www.w3.org/1999/xlink"><g><g><g><g><path d="M5.1,23.5c-0.1,0-0.2,0-0.3-0.1c-0.2-0.1-0.2-0.3-0.2-0.4v-3.6c-2.6-2-4.1-5-4.1-8.2C0.5,5.3,5.7,0.5,12,0.5      s11.5,4.8,11.5,10.7c0,5.9-5.2,10.7-11.5,10.7c-1.1,0-2.1-0.1-3.1-0.4l-3.6,2C5.3,23.5,5.2,23.5,5.1,23.5z M12,1.5      c-5.8,0-10.5,4.3-10.5,9.7c0,2.9,1.4,5.7,3.9,7.5c0.1,0.1,0.2,0.2,0.2,0.4v3l3-1.6c0.1-0.1,0.2-0.1,0.4,0c1,0.3,2,0.4,3,0.4      c5.8,0,10.5-4.3,10.5-9.7C22.5,5.8,17.8,1.5,12,1.5z M4.8,15.2c-0.2,0-0.3-0.1-0.4-0.2c-0.2-0.2-0.1-0.5,0-0.6l6-6.4      c0.1-0.1,0.2-0.2,0.4-0.2c0.1,0,0.3,0.1,0.4,0.2l2.6,2.7l5.1-2.8c0.2-0.1,0.5-0.1,0.6,0.1c0.2,0.2,0.1,0.5,0,0.6l-6,6.4      c-0.1,0.1-0.2,0.2-0.4,0.2c0,0,0,0,0,0c-0.1,0-0.3-0.1-0.4-0.2l-2.5-2.7l-5.1,2.8C5,15.2,4.9,15.2,4.8,15.2z M10.3,11.2      c0.1,0,0.3,0.1,0.4,0.2l2.4,2.6l3.5-3.7L14,11.8c-0.2,0.1-0.4,0.1-0.6-0.1l-2.5-2.6l-3.5,3.7l2.7-1.5      C10.1,11.2,10.2,11.2,10.3,11.2z"/></g></g></g><g><path d="M9.2,21.5c0,0-0.1,0-0.1,0c-0.8-0.2-1.7-0.6-2.4-1c-0.2-0.1-0.3-0.4-0.2-0.7c0.1-0.2,0.4-0.3,0.7-0.2    c0.7,0.4,1.4,0.7,2.2,0.9c0.3,0.1,0.4,0.3,0.4,0.6C9.6,21.4,9.4,21.5,9.2,21.5z"/></g></g></svg>